HIERARCHY
ROOT pelvis
{
  OFFSET 0 100 0
  CHANNELS 6 Xposition Yposition Zposition Zrotation Xrotation Yrotation
  JOINT pelvis_right_femur
  {
    OFFSET -10.78128 -3.44521 -0.5502486
    CHANNELS 3 Zrotation Xrotation Yrotation
    JOINT right_femur_tibia
    {
      OFFSET -0.8047443 -44.0398 -0.1307829
      CHANNELS 3 Zrotation Xrotation Yrotation
      JOINT right_tibia_foot
      {
        OFFSET 3.006224 -47.83518 -5
        CHANNELS 3 Zrotation Xrotation Yrotation
        End Site
        {
          OFFSET 0 -5 15
        }
      }
    }
  }
  JOINT pelvis_left_femur
  {
    OFFSET 10.78128 -3.44521 -0.5502486
    CHANNELS 3 Zrotation Xrotation Yrotation
    JOINT left_femur_tibia
    {
      OFFSET 0.8047443 -44.0398 -0.1307829
      CHANNELS 3 Zrotation Xrotation Yrotation
      JOINT left_tibia_foot
      {
        OFFSET -4.370144 -48.10324 -4.275266
        CHANNELS 3 Zrotation Xrotation Yrotation
        End Site
        {
          OFFSET 0 -5 15
        }
      }
    }
  }
  JOINT pelvis_spine1
  {
    OFFSET 0 6.468898 -3.129235
    CHANNELS 3 Zrotation Xrotation Yrotation
    JOINT spine1
    {
      OFFSET 0 23.15396 4.99043
      CHANNELS 3 Zrotation Xrotation Yrotation
      JOINT spine2
      {
        OFFSET 0 20.79997 -5.064912
        CHANNELS 3 Zrotation Xrotation Yrotation
        JOINT neck
        {
          OFFSET 0 14.38658 9.616178
          CHANNELS 3 Zrotation Xrotation Yrotation
          End Site
          {
            OFFSET 0 20 0
          }
        }
      }
      JOINT right_manubrium
      {
        OFFSET -5.722621 16.35077 3.967754
        CHANNELS 3 Zrotation Xrotation Yrotation
        JOINT right_clavicle
        {
          OFFSET -13.16364 1.694482 -4.693211
          CHANNELS 3 Zrotation Xrotation Yrotation
          JOINT right_humerus
          {
            OFFSET -28.5034 -0.3100689 -2.792744
            CHANNELS 3 Zrotation Xrotation Yrotation
            JOINT right_radius
            {
              OFFSET -25.15693 0.02248979 -1.271978
              CHANNELS 3 Zrotation Xrotation Yrotation
              End Site
              {
                OFFSET -15 0 0
              }
            }
          }
        }
      }
      JOINT left_manubrium
      {
        OFFSET 5.722621 16.35077 3.967754
        CHANNELS 3 Zrotation Xrotation Yrotation
        JOINT left_clavicle
        {
          OFFSET 13.16364 1.694482 -4.693211
          CHANNELS 3 Zrotation Xrotation Yrotation
          JOINT left_humerus
          {
            OFFSET 29.39168 -1.063119 -2.237045
            CHANNELS 3 Zrotation Xrotation Yrotation
            JOINT left_radius
            {
              OFFSET 24.59957 -0.9528479 0.9047498
              CHANNELS 3 Zrotation Xrotation Yrotation
              End Site
              {
                OFFSET 15 -0 -0
              }
            }
          }
        }
      }
    }
  }
}
MOTION
Frames: 15
Frame Time: 0.0416666666667
-831.2761 100.1449 2750.047 -3.160988 -2.182087 -44.36415 3.403156 19.81596 0.4816447 -0 13.44803 -0 -5.95872 -17.84437 0.3744342 2.324144 -26.73862 -4.469652 -0 10.61574 -0 -3.578694 -5.394175 19.48315 -1.673148 -2.689978 7.404367 0.943458 11.63202 -5.848614 -1.828492 20.89819 8.197382 6.266701 -15.70611 3.389744 2.866143 -24.91881 13.18492 83.80011 26.90125 -10.8317 -0 0 23.7272 -19.67134 8.388081 9.995941 4.551557 -23.73166 -6.049654 -95.48243 7.499087 34.30735 0 0 -1.563391 10.69503 11.93022 -1.159451
-835.3519 99.47526 2755.679 -2.632187 -2.066968 -45.15822 2.23993 21.27298 0.4420025 -0 14.9801 -0 -5.564428 -16.30006 1.024277 1.303963 -26.94109 -5.649812 -0 10.99085 -0 -4.231781 -5.780066 20.01051 -1.866962 -2.513957 7.193409 0.9041581 11.34009 -5.925501 -1.646297 20.9196 8.317561 6.525571 -16.20192 3.540934 2.821072 -24.37562 13.05445 83.9381 27.27817 -11.08698 -0 0 23.19249 -19.52662 7.906819 9.540932 4.989594 -23.80074 -5.704689 -95.24542 7.635208 32.97844 0 0 -1.555458 11.06696 12.38248 -1.768259
-839.6723 98.99508 2761.567 -2.160905 -2.313527 -45.86437 1.043686 22.17926 0.7204847 -0 17.80379 -0 -5.272015 -12.75823 1.604257 0.09386921 -26.60466 -6.727958 -0 12.28499 -0 -4.24253 -6.025101 20.28003 -2.072281 -2.382758 7.070646 0.9315907 11.12429 -6.102406 -1.513697 20.8827 8.389835 6.804276 -16.6584 3.554073 2.759712 -23.97374 12.97605 84.13393 27.47205 -11.4941 -0 0 22.7869 -19.21685 7.353098 8.954424 5.369941 -24.03104 -5.52002 -95.05379 7.673 31.85535 0 0 -1.756342 11.41063 12.78074 -2.293463
-844.1342 98.81771 2767.626 -1.89616 -3.027235 -46.3216 -0.1060397 22.08512 1.290299 -0 23.15076 -0 -5.216807 -7.226901 1.858116 -1.390916 -25.09674 -7.723821 -0 14.26131 -0 -3.431291 -6.188647 20.17884 -2.280701 -2.281873 7.001858 0.9629743 10.95859 -6.294852 -1.393927 20.82921 8.413341 7.069909 -17.08689 3.506318 2.684914 -23.68253 12.90633 84.33565 27.60293 -11.89501 -0 0 22.50001 -18.89462 6.797003 8.368616 5.697988 -24.29455 -5.432832 -94.88282 7.689884 30.8562 0 0 -2.035861 11.72954 13.12935 -2.765238
-848.5633 99.07844 2773.667 -2.054083 -4.172454 -46.38753 -0.9417874 20.32903 1.902871 -0 31.2884 -0 -5.412863 -0.7792069 1.551812 -3.027366 -21.95374 -8.607831 -0 16.48736 -0 -2.030486 -6.567806 19.87965 -2.473866 -2.187083 6.958011 0.9481489 10.83489 -6.435973 -1.258597 20.79167 8.385651 7.300122 -17.48871 3.453516 2.599233 -23.46761 12.81276 84.52236 27.76265 -12.1902 -0 0 22.29947 -18.66983 6.303932 7.867367 5.973264 -24.50475 -5.412699 -94.70293 7.73143 29.90925 0 0 -2.306462 12.03987 13.42225 -3.215542
-852.7788 99.81962 2779.449 -2.744508 -5.445842 -46.04133 -1.161375 16.33149 2.192181 -0 40.51325 -0 -5.8166 4.733921 0.679375 -4.392409 -17.19921 -9.212507 -0 18.15185 -0 -0.5017212 -7.375577 19.64729 -2.632709 -2.071112 6.911015 0.8484077 10.75103 -6.476558 -1.085273 20.79579 8.307579 7.482511 -17.86338 3.439171 2.506789 -23.28735 12.67086 84.69405 28.02953 -12.32682 -0 0 22.1346 -18.61719 5.926514 7.498142 6.19818 -24.603 -5.442485 -94.47984 7.825088 28.93818 0 0 -2.518596 12.36896 13.65269 -3.684933
-856.6746 100.905 2784.795 -3.733953 -6.409987 -45.38812 -0.7840766 10.13174 2.011169 -0 47.8603 -0 -6.452544 8.12527 -0.4328028 -5.14084 -11.42792 -9.44735 -0 18.5125 -0 0.7986845 -8.587576 19.4621 -2.748156 -1.917281 6.842874 0.6519935 10.70674 -6.402961 -0.8671322 20.85366 8.185234 7.617186 -18.20544 3.480105 2.412853 -23.10662 12.47445 84.86422 28.44077 -12.31151 -0 0 21.95545 -18.75168 5.681826 7.26402 6.37822 -24.57428 -5.518104 -94.1878 7.976444 27.89022 0 0 -2.68196 12.73893 13.81753 -4.204891
-860.236 102.0592 2789.662 -4.58838 -6.779137 -44.55941 -0.1268015 2.506938 1.498718 -0 51.20429 -0 -7.282792 9.412603 -1.390888 -5.307082 -5.48316 -9.470941 -0 17.44291 -0 1.643941 -10.15326 19.04431 -2.828491 -1.736516 6.765756 0.3978841 10.70662 -6.262713 -0.6313869 20.94879 8.030248 7.719776 -18.49581 3.536814 2.316128 -22.9284 12.25178 85.05426 28.92912 -12.23164 -0 0 21.75265 -18.99522 5.524799 7.107777 6.514781 -24.48286 -5.660942 -93.83446 8.149752 26.80378 0 0 -2.887799 13.13406 13.91062 -4.756887
-863.504 102.9807 2794.093 -5.0159 -6.520365 -43.66787 0.5098454 -5.59324 0.8408708 -0 50.09321 -0 -8.081152 9.046129 -2.066967 -5.139624 0.06219148 -9.549182 -0 15.35556 -0 1.863258 -12.12149 18.20948 -2.895421 -1.560498 6.704993 0.1493184 10.746 -6.130748 -0.4197816 21.04873 7.861857 7.809547 -18.72476 3.555167 2.211815 -22.77876 12.04295 85.27467 29.382 -12.19358 -0 0 21.55296 -19.23523 5.382745 6.956997 6.614451 -24.41933 -5.879055 -93.45266 8.299887 25.76549 0 0 -3.233655 13.51329 13.93256 -5.29332
-866.5334 103.4419 2798.153 -4.867937 -5.682538 -42.80979 0.9683832 -13.49857 0.1779479 -0 45.1167 -0 -8.491014 7.41208 -2.569274 -4.889961 4.953447 -9.889686 -0 12.79009 -0 1.363903 -14.57348 16.96334 -2.968578 -1.416315 6.668818 -0.05392065 10.80259 -6.049671 -0.2543699 21.13309 7.702868 7.893902 -18.90506 3.525325 2.104131 -22.66876 11.8681 85.51103 29.74998 -12.23847 -0 0 21.37911 -19.40787 5.216892 6.784681 6.692208 -24.41687 -6.135606 -93.07378 8.414874 24.82859 0 0 -3.730362 13.84932 13.90166 -5.784085
-869.3706 103.3252 2801.892 -4.063776 -4.313875 -42.06992 1.231387 -20.72827 -0.3280582 -0 37.22194 -0 -8.20528 4.86455 -3.028186 -4.744363 9.01069 -10.60971 -0 10.24021 -0 0.2186442 -17.4796 15.49433 -3.061047 -1.319247 6.653195 -0.1963928 10.84708 -6.029158 -0.1384528 21.19466 7.573218 7.972441 -19.05861 3.468497 2.005403 -22.59685 11.73169 85.73285 30.03939 -12.34983 -0 0 21.24528 -19.49016 5.018547 6.598518 6.7614 -24.46061 -6.373691 -92.72737 8.505144 24.02319 0 0 -4.311354 14.13123 13.84871 -6.213111
-872.0687 102.6306 2805.368 -2.642625 -2.567371 -41.51507 1.409793 -26.77812 -0.4891019 -0 27.54882 -0 -7.1658 1.96241 -3.439383 -4.82502 12.06032 -11.68695 -0 8.222689 -0 -1.153141 -20.55203 14.21489 -3.181905 -1.28025 6.660464 -0.2663549 10.85603 -6.072862 -0.07320806 21.22539 7.486521 8.046172 -19.20444 3.399771 1.925525 -22.57123 11.63869 85.90714 30.24931 -12.49776 -0 0 21.1787 -19.46309 4.779815 6.406151 6.82636 -24.53564 -6.548077 -92.45525 8.576435 23.40336 0 0 -4.877929 14.34368 13.8053 -6.551303
-874.7356 101.5011 2808.698 -0.8994407 -0.8071468 -41.13246 1.730884 -31.18088 -0.2391696 -0 17.86114 -0 -5.782909 -0.2454503 -3.598217 -5.156599 14.12454 -12.87125 -0 7.347968 -0 -1.963162 -23.16444 13.64786 -3.321212 -1.299666 6.697056 -0.2597498 10.82751 -6.17366 -0.0586512 21.21784 7.444824 8.114302 -19.34227 3.320914 1.866953 -22.60342 11.59592 86.01062 30.3493 -12.65169 -0 0 21.20583 -19.33019 4.512313 6.217332 6.880182 -24.63758 -6.643247 -92.30337 8.620714 23.04288 0 0 -5.321994 14.46206 13.79094 -6.754278
-877.5572 100.2413 2812.089 0.5716371 0.6005542 -40.75111 2.529882 -33.81013 0.3360643 -0 10.82913 -0 -4.895268 -0.8033039 -3.299904 -5.520508 15.56357 -13.76638 -0 8.230331 -0 -1.809864 -24.50247 13.85373 -3.424044 -1.34946 6.756527 -0.1987632 10.79737 -6.28973 -0.08676886 21.17748 7.434994 8.164781 -19.4277 3.231556 1.826132 -22.67988 11.60526 86.04379 30.29208 -12.77745 -0 0 21.30737 -19.16306 4.293819 6.066819 6.903903 -24.75894 -6.685674 -92.29294 8.613226 22.99493 0 0 -5.548738 14.46313 13.79508 -6.780738
-880.6998 99.20641 2815.743 1.266529 1.698482 -40.15814 3.949732 -34.79058 1.223016 -0 8.334305 -0 -4.971478 -0.3494887 -2.817895 -5.491237 16.62877 -14.13435 -0 11.09011 -0 -1.784397 -24.19523 13.89507 -3.40306 -1.376583 6.814762 -0.1325196 10.82569 -6.346179 -0.1406411 21.12643 7.435736 8.173233 -19.38374 3.142845 1.799306 -22.75858 11.65814 86.02882 30.05525 -12.833 -0 0 21.41332 -19.09011 4.25979 6.017815 6.870694 -24.87355 -6.72839 -92.40367 8.524479 23.26445 0 0 -5.499751 14.34075 13.77435 -6.614582
